<svg width="508" height="428" viewBox="0 0 508 428" fill="none" xmlns="http://www.w3.org/2000/svg">
<rect x="207" y="215.798" width="135" height="6" fill="url(#paint0_linear_246_16505)"/>
<path fill-rule="evenodd" clip-rule="evenodd" d="M209 197.798C209 201.112 211.686 203.798 215 203.798H223H241H307H311H333C336.314 203.798 339 201.112 339 197.798H345C345 204.425 339.627 209.798 333 209.798H311H307H241H223H215C208.373 209.798 203 204.425 203 197.798H209Z" fill="url(#paint1_linear_246_16505)"/>
<path fill-rule="evenodd" clip-rule="evenodd" d="M209 239.798C209 236.484 211.686 233.798 215 233.798H223H241H307H311H333C336.314 233.798 339 236.484 339 239.798H345C345 233.17 339.627 227.798 333 227.798H311H307H241H223H215C208.373 227.798 203 233.17 203 239.798H209Z" fill="url(#paint2_linear_246_16505)"/>
<g filter="url(#filter0_b_246_16505)">
<path fill-rule="evenodd" clip-rule="evenodd" d="M195 167.752C198.313 167.752 201 165.066 201 161.752V153.752V135.752V65.752H207V135.752V153.752V161.752C207 168.379 201.627 173.752 195 173.752H172.388V167.752H195Z" fill="url(#paint3_linear_246_16505)"/>
</g>
<g filter="url(#filter1_b_246_16505)">
<path fill-rule="evenodd" clip-rule="evenodd" d="M160.112 136.993C160.112 140.307 157.426 142.993 154.112 142.993H148.806V142.977H126.194C119.567 142.977 114.194 148.349 114.194 154.977V172.977H120.194V154.977C120.194 151.663 122.881 148.977 126.194 148.977H131.5V148.993H154.112C160.74 148.993 166.112 143.621 166.112 136.993V128.993V110.993V40.9932H160.112V110.993V128.993V136.993Z" fill="url(#paint4_linear_246_16505)"/>
</g>
<g filter="url(#filter2_b_246_16505)">
<path fill-rule="evenodd" clip-rule="evenodd" d="M478.848 178.103C478.848 174.789 481.535 172.103 484.848 172.103H507.46V166.103H484.848C478.221 166.103 472.848 171.475 472.848 178.103V181.283H472.844V207.247V225.247V233.247C472.844 236.561 470.158 239.247 466.844 239.247H444.232V245.247H466.844C473.472 245.247 478.844 239.875 478.844 233.247V225.247V207.247V204.103H478.848V178.103Z" fill="url(#paint5_linear_246_16505)"/>
</g>
<g filter="url(#filter3_b_246_16505)">
<path fill-rule="evenodd" clip-rule="evenodd" d="M380.159 281.201C380.159 277.887 377.473 275.201 374.159 275.201H351.547V269.201H374.159C380.786 269.201 386.159 274.574 386.159 281.201V307.201H386.163V349.346V367.346V375.346C386.163 378.66 388.849 381.346 392.163 381.346H414.775V387.346H392.163C385.535 387.346 380.163 381.973 380.163 375.346V367.346V349.346V307.201H380.159V281.201Z" fill="url(#paint6_linear_246_16505)"/>
</g>
<g filter="url(#filter4_b_246_16505)">
<path fill-rule="evenodd" clip-rule="evenodd" d="M446.516 136.993C446.516 140.307 443.829 142.993 440.516 142.993H435.21V142.976H412.598C405.97 142.976 400.598 148.349 400.598 154.976V172.976H406.598V154.976C406.598 151.663 409.284 148.976 412.598 148.976H417.904V148.993H440.516C447.143 148.993 452.516 143.62 452.516 136.993V128.993V110.993V74.0039H446.516V110.993V128.993V136.993Z" fill="url(#paint7_linear_246_16505)"/>
</g>
<g filter="url(#filter5_b_246_16505)">
<path fill-rule="evenodd" clip-rule="evenodd" d="M102.019 239.788C102.014 236.475 99.3232 233.793 96.0095 233.798L88.0095 233.811L70.0095 233.839L0.00958251 233.951L0 227.951L69.9999 227.839L87.9999 227.811L95.9999 227.798C102.627 227.787 108.008 233.151 108.019 239.779L108.055 262.391L102.055 262.4L102.019 239.788Z" fill="url(#paint8_linear_246_16505)"/>
</g>
<g filter="url(#filter6_b_246_16505)">
<path fill-rule="evenodd" clip-rule="evenodd" d="M168.766 293.798C168.766 297.112 166.079 299.798 162.766 299.798H157.46V299.781H134.848C128.22 299.781 122.848 305.154 122.848 311.781V319.781V337.781V366.039H128.848V337.781V319.781V311.781C128.848 308.468 131.534 305.781 134.848 305.781H140.154V305.798H162.766C169.393 305.798 174.766 300.425 174.766 293.798V275.798H168.766V293.798Z" fill="url(#paint9_linear_246_16505)"/>
</g>
<g filter="url(#filter7_bd_246_16505)">
<rect x="101" y="167.798" width="108" height="108" rx="12" fill="url(#paint10_linear_246_16505)" fill-opacity="0.7" shape-rendering="crispEdges"/>
<path d="M151.463 237.387C151.463 237.118 151.403 236.852 151.289 236.609C151.175 236.365 151.009 236.15 150.802 235.978C150.596 235.806 150.354 235.681 150.094 235.613C149.833 235.545 149.562 235.535 149.297 235.584C146.897 236.024 143.867 236.091 143.061 233.828C142.359 232.075 141.195 230.545 139.694 229.4C139.586 229.342 139.484 229.275 139.388 229.199C139.257 228.853 139.024 228.554 138.719 228.343C138.414 228.132 138.053 228.018 137.682 228.016H137.673C137.188 228.016 136.723 228.208 136.38 228.55C136.036 228.892 135.842 229.356 135.84 229.84C135.833 231.335 137.327 232.293 137.933 232.617C138.648 233.335 139.222 234.181 139.626 235.109C140.294 236.986 142.235 239.832 147.814 239.465C147.816 239.53 147.817 239.591 147.818 239.646L147.826 240.137C147.826 240.623 148.02 241.089 148.363 241.433C148.707 241.777 149.173 241.97 149.66 241.97C150.146 241.97 150.612 241.777 150.956 241.433C151.3 241.089 151.493 240.623 151.493 240.137L151.484 239.553C151.475 239.206 151.463 238.703 151.463 237.387ZM171.019 209.656C171.077 209.427 171.134 209.172 171.184 208.886C171.481 206.843 171.222 204.758 170.436 202.849C170.337 202.6 170.184 202.376 169.989 202.192C169.794 202.008 169.561 201.869 169.307 201.785C168.654 201.565 166.245 201.132 161.636 204.077C157.806 203.175 153.818 203.175 149.987 204.077C145.398 201.175 143 201.569 142.354 201.776C142.094 201.857 141.854 201.995 141.654 202.181C141.454 202.366 141.297 202.594 141.197 202.847C140.394 204.793 140.139 206.92 140.457 209.001C140.502 209.235 140.55 209.452 140.6 209.65C139.082 211.673 138.273 214.141 138.299 216.67C138.294 217.235 138.32 217.799 138.377 218.361C138.989 226.799 144.489 229.332 148.321 230.202C148.242 230.431 148.169 230.676 148.105 230.936C147.99 231.408 148.067 231.906 148.319 232.321C148.57 232.736 148.976 233.034 149.448 233.15C149.919 233.267 150.417 233.191 150.833 232.94C151.249 232.69 151.548 232.284 151.666 231.813C151.782 231.202 152.081 230.641 152.523 230.204C152.791 229.97 152.984 229.663 153.08 229.321C153.176 228.98 153.171 228.617 153.065 228.278C152.959 227.939 152.757 227.638 152.483 227.412C152.209 227.186 151.875 227.044 151.523 227.004C145.19 226.281 142.441 223.701 142.027 218.024C141.982 217.574 141.961 217.122 141.966 216.67C141.936 214.868 142.532 213.11 143.651 211.697C143.764 211.549 143.884 211.408 144.01 211.272C144.235 211.021 144.386 210.713 144.446 210.382C144.507 210.051 144.476 209.709 144.355 209.394C144.231 209.064 144.136 208.723 144.07 208.376C143.921 207.389 143.97 206.382 144.214 205.414C145.808 205.864 147.307 206.597 148.642 207.577C148.862 207.724 149.112 207.822 149.374 207.864C149.636 207.906 149.904 207.891 150.159 207.821C153.865 206.815 157.771 206.816 161.476 207.822C161.733 207.893 162.002 207.907 162.265 207.863C162.528 207.82 162.778 207.72 162.999 207.57C164.327 206.586 165.82 205.847 167.408 205.388C167.652 206.332 167.706 207.315 167.569 208.281C167.502 208.661 167.398 209.034 167.259 209.394C167.138 209.709 167.107 210.051 167.167 210.382C167.228 210.713 167.379 211.021 167.604 211.273C167.745 211.432 167.886 211.604 168.014 211.765C169.125 213.154 169.711 214.892 169.667 216.67C169.67 217.146 169.647 217.622 169.598 218.096C169.194 223.698 166.435 226.279 160.072 227.004C159.719 227.045 159.386 227.187 159.112 227.413C158.838 227.639 158.636 227.94 158.53 228.279C158.424 228.618 158.419 228.981 158.515 229.323C158.612 229.665 158.805 229.972 159.073 230.206C159.528 230.655 159.828 231.238 159.927 231.871C160.051 232.361 160.108 232.867 160.097 233.373V237.652C160.079 238.839 160.079 239.729 160.079 240.137C160.079 240.623 160.272 241.089 160.616 241.433C160.959 241.777 161.426 241.97 161.912 241.97C162.398 241.97 162.865 241.777 163.208 241.433C163.552 241.089 163.745 240.623 163.745 240.137C163.745 239.739 163.745 238.867 163.763 237.68V233.373C163.778 232.562 163.683 231.753 163.479 230.968C163.421 230.711 163.35 230.456 163.266 230.206C166.055 229.742 168.589 228.304 170.418 226.148C172.246 223.991 173.249 221.256 173.249 218.429C173.31 217.845 173.338 217.258 173.334 216.67C173.374 214.138 172.559 211.666 171.019 209.656L171.019 209.656Z" fill="white"/>
<rect x="104.5" y="171.298" width="101" height="101" rx="8.5" stroke="#1A62FF" stroke-width="7" shape-rendering="crispEdges"/>
</g>
<g filter="url(#filter8_bd_246_16505)">
<rect x="339" y="167.798" width="108" height="108" rx="12" fill="url(#paint11_linear_246_16505)" fill-opacity="0.7" shape-rendering="crispEdges"/>
<path d="M381.423 210.176C381.101 209.745 380.794 209.4 380.337 209.238C379.822 209.008 379.244 208.993 378.702 209.303C378.5 209.419 378.365 209.526 378.252 209.654C377.623 210.233 377.434 211.164 377.852 211.949L377.853 211.948C377.948 212.155 378.042 212.332 378.157 212.547L383.593 221.176L386.064 225.098L387.019 226.614L391.041 233.256C391.276 233.643 391.613 233.964 392.019 234.188C392.426 234.411 392.886 234.529 393.356 234.529C393.825 234.529 394.285 234.411 394.692 234.188C395.098 233.964 395.435 233.643 395.67 233.256L408.012 212.889C408.246 212.502 408.37 212.063 408.37 211.616C408.37 211.169 408.247 210.73 408.013 210.343C407.778 209.956 407.441 209.634 407.035 209.411C406.629 209.188 406.168 209.07 405.699 209.07H396.428C392.755 209.07 390.047 210.607 388.183 213.606L387.636 214.507L387.5 214.733L390.132 218.398L391.752 215.724C392.99 213.779 394.396 213.07 396.579 213.07L403.049 213.071L393.351 229.073L390.601 224.525L390.603 224.522L390.5 224.358L388.512 221.072L385.997 217.211L383.117 212.642L381.423 210.176Z" fill="white"/>
<path d="M379.766 227.724C379.701 227.834 379.624 227.99 379.583 228.106C379.385 228.722 379.52 229.39 379.926 229.886C379.946 229.914 379.967 229.939 379.989 229.96C380.133 230.12 380.307 230.259 380.509 230.37C381.469 230.899 382.69 230.58 383.244 229.658C383.358 229.534 383.46 229.399 383.547 229.255L384.806 227.177L382.266 223.365L382.119 223.608L381.824 224.095L381.234 225.067L379.766 227.724Z" fill="white"/>
<rect x="342.5" y="171.298" width="101" height="101" rx="8.5" stroke="#EC499A" stroke-width="7" shape-rendering="crispEdges"/>
</g>
<defs>
<filter id="filter0_b_246_16505" x="-107.612" y="-214.248" width="594.612" height="668" filterUnits="userSpaceOnUse" color-interpolation-filters="sRGB">
<feFlood flood-opacity="0" result="BackgroundImageFix"/>
<feGaussianBlur in="BackgroundImage" stdDeviation="140"/>
<feComposite in2="SourceAlpha" operator="in" result="effect1_backgroundBlur_246_16505"/>
<feBlend mode="normal" in="SourceGraphic" in2="effect1_backgroundBlur_246_16505" result="shape"/>
</filter>
<filter id="filter1_b_246_16505" x="-165.806" y="-239.007" width="611.918" height="691.983" filterUnits="userSpaceOnUse" color-interpolation-filters="sRGB">
<feFlood flood-opacity="0" result="BackgroundImageFix"/>
<feGaussianBlur in="BackgroundImage" stdDeviation="140"/>
<feComposite in2="SourceAlpha" operator="in" result="effect1_backgroundBlur_246_16505"/>
<feBlend mode="normal" in="SourceGraphic" in2="effect1_backgroundBlur_246_16505" result="shape"/>
</filter>
<filter id="filter2_b_246_16505" x="164.232" y="-113.897" width="623.229" height="639.145" filterUnits="userSpaceOnUse" color-interpolation-filters="sRGB">
<feFlood flood-opacity="0" result="BackgroundImageFix"/>
<feGaussianBlur in="BackgroundImage" stdDeviation="140"/>
<feComposite in2="SourceAlpha" operator="in" result="effect1_backgroundBlur_246_16505"/>
<feBlend mode="normal" in="SourceGraphic" in2="effect1_backgroundBlur_246_16505" result="shape"/>
</filter>
<filter id="filter3_b_246_16505" x="71.5469" y="-10.7988" width="623.229" height="678.145" filterUnits="userSpaceOnUse" color-interpolation-filters="sRGB">
<feFlood flood-opacity="0" result="BackgroundImageFix"/>
<feGaussianBlur in="BackgroundImage" stdDeviation="140"/>
<feComposite in2="SourceAlpha" operator="in" result="effect1_backgroundBlur_246_16505"/>
<feBlend mode="normal" in="SourceGraphic" in2="effect1_backgroundBlur_246_16505" result="shape"/>
</filter>
<filter id="filter4_b_246_16505" x="120.598" y="-205.996" width="611.918" height="658.973" filterUnits="userSpaceOnUse" color-interpolation-filters="sRGB">
<feFlood flood-opacity="0" result="BackgroundImageFix"/>
<feGaussianBlur in="BackgroundImage" stdDeviation="140"/>
<feComposite in2="SourceAlpha" operator="in" result="effect1_backgroundBlur_246_16505"/>
<feBlend mode="normal" in="SourceGraphic" in2="effect1_backgroundBlur_246_16505" result="shape"/>
</filter>
<filter id="filter5_b_246_16505" x="-280" y="-52.2021" width="668.055" height="594.603" filterUnits="userSpaceOnUse" color-interpolation-filters="sRGB">
<feFlood flood-opacity="0" result="BackgroundImageFix"/>
<feGaussianBlur in="BackgroundImage" stdDeviation="140"/>
<feComposite in2="SourceAlpha" operator="in" result="effect1_backgroundBlur_246_16505"/>
<feBlend mode="normal" in="SourceGraphic" in2="effect1_backgroundBlur_246_16505" result="shape"/>
</filter>
<filter id="filter6_b_246_16505" x="-157.152" y="-4.20215" width="611.918" height="650.24" filterUnits="userSpaceOnUse" color-interpolation-filters="sRGB">
<feFlood flood-opacity="0" result="BackgroundImageFix"/>
<feGaussianBlur in="BackgroundImage" stdDeviation="140"/>
<feComposite in2="SourceAlpha" operator="in" result="effect1_backgroundBlur_246_16505"/>
<feBlend mode="normal" in="SourceGraphic" in2="effect1_backgroundBlur_246_16505" result="shape"/>
</filter>
<filter id="filter7_bd_246_16505" x="63" y="129.798" width="184" height="184" filterUnits="userSpaceOnUse" color-interpolation-filters="sRGB">
<feFlood flood-opacity="0" result="BackgroundImageFix"/>
<feGaussianBlur in="BackgroundImage" stdDeviation="19"/>
<feComposite in2="SourceAlpha" operator="in" result="effect1_backgroundBlur_246_16505"/>
<feColorMatrix in="SourceAlpha" type="matrix" values="0 0 0 0 0 0 0 0 0 0 0 0 0 0 0 0 0 0 127 0" result="hardAlpha"/>
<feOffset/>
<feGaussianBlur stdDeviation="11"/>
<feComposite in2="hardAlpha" operator="out"/>
<feColorMatrix type="matrix" values="0 0 0 0 0.101961 0 0 0 0 0.384314 0 0 0 0 1 0 0 0 0.8 0"/>
<feBlend mode="normal" in2="effect1_backgroundBlur_246_16505" result="effect2_dropShadow_246_16505"/>
<feBlend mode="normal" in="SourceGraphic" in2="effect2_dropShadow_246_16505" result="shape"/>
</filter>
<filter id="filter8_bd_246_16505" x="301" y="129.798" width="184" height="184" filterUnits="userSpaceOnUse" color-interpolation-filters="sRGB">
<feFlood flood-opacity="0" result="BackgroundImageFix"/>
<feGaussianBlur in="BackgroundImage" stdDeviation="19"/>
<feComposite in2="SourceAlpha" operator="in" result="effect1_backgroundBlur_246_16505"/>
<feColorMatrix in="SourceAlpha" type="matrix" values="0 0 0 0 0 0 0 0 0 0 0 0 0 0 0 0 0 0 127 0" result="hardAlpha"/>
<feOffset/>
<feGaussianBlur stdDeviation="11"/>
<feComposite in2="hardAlpha" operator="out"/>
<feColorMatrix type="matrix" values="0 0 0 0 0.92549 0 0 0 0 0.286275 0 0 0 0 0.603922 0 0 0 0.8 0"/>
<feBlend mode="normal" in2="effect1_backgroundBlur_246_16505" result="effect2_dropShadow_246_16505"/>
<feBlend mode="normal" in="SourceGraphic" in2="effect2_dropShadow_246_16505" result="shape"/>
</filter>
<linearGradient id="paint0_linear_246_16505" x1="232.49" y1="216.793" x2="322.306" y2="223.659" gradientUnits="userSpaceOnUse">
<stop stop-color="#1A62F7"/>
<stop offset="0.494792" stop-color="#A855F7"/>
<stop offset="1" stop-color="#EC4899"/>
</linearGradient>
<linearGradient id="paint1_linear_246_16505" x1="229.812" y1="199.788" x2="324.683" y2="203.602" gradientUnits="userSpaceOnUse">
<stop stop-color="#1A62F7"/>
<stop offset="0.494792" stop-color="#A855F7"/>
<stop offset="1" stop-color="#EC4899"/>
</linearGradient>
<linearGradient id="paint2_linear_246_16505" x1="229.812" y1="229.788" x2="324.683" y2="233.602" gradientUnits="userSpaceOnUse">
<stop stop-color="#1A62F7"/>
<stop offset="0.494792" stop-color="#A855F7"/>
<stop offset="1" stop-color="#EC4899"/>
</linearGradient>
<linearGradient id="paint3_linear_246_16505" x1="176.592" y1="169.924" x2="175.587" y2="73.3696" gradientUnits="userSpaceOnUse">
<stop stop-color="#27272A"/>
<stop offset="1" stop-color="#27272A" stop-opacity="0"/>
</linearGradient>
<linearGradient id="paint4_linear_246_16505" x1="120.5" y1="168.298" x2="119.5" y2="50.2982" gradientUnits="userSpaceOnUse">
<stop stop-color="#27272A"/>
<stop offset="1" stop-color="#27272A" stop-opacity="0"/>
</linearGradient>
<linearGradient id="paint5_linear_246_16505" x1="435" y1="244.798" x2="518.359" y2="178.885" gradientUnits="userSpaceOnUse">
<stop stop-color="#27272A"/>
<stop offset="1" stop-color="#27272A" stop-opacity="0"/>
</linearGradient>
<linearGradient id="paint6_linear_246_16505" x1="383.161" y1="269.201" x2="383.161" y2="387.346" gradientUnits="userSpaceOnUse">
<stop stop-color="#27272A"/>
<stop offset="0.932292" stop-color="#27272A" stop-opacity="0"/>
</linearGradient>
<linearGradient id="paint7_linear_246_16505" x1="406.904" y1="169.468" x2="406.341" y2="80.9788" gradientUnits="userSpaceOnUse">
<stop stop-color="#27272A"/>
<stop offset="1" stop-color="#27272A" stop-opacity="0"/>
</linearGradient>
<linearGradient id="paint8_linear_246_16505" x1="91.978" y1="232.787" x2="54.0276" y2="262.4" gradientUnits="userSpaceOnUse">
<stop stop-color="#27272A"/>
<stop offset="1" stop-color="#27272A" stop-opacity="0"/>
</linearGradient>
<linearGradient id="paint9_linear_246_16505" x1="148.807" y1="275.798" x2="148.807" y2="366.039" gradientUnits="userSpaceOnUse">
<stop stop-color="#27272A"/>
<stop offset="0.932292" stop-color="#27272A" stop-opacity="0"/>
</linearGradient>
<linearGradient id="paint10_linear_246_16505" x1="75.5" y1="167.798" x2="246.5" y2="301.298" gradientUnits="userSpaceOnUse">
<stop stop-color="#18181B"/>
<stop offset="1" stop-color="#18181B" stop-opacity="0"/>
</linearGradient>
<linearGradient id="paint11_linear_246_16505" x1="313.5" y1="167.798" x2="484.5" y2="301.298" gradientUnits="userSpaceOnUse">
<stop stop-color="#18181B"/>
<stop offset="1" stop-color="#18181B" stop-opacity="0"/>
</linearGradient>
</defs>
</svg>
